<?xml version="1.0" standalone="no"?>
<!DOCTYPE svg PUBLIC "-//W3C//DTD SVG 20010904//EN"
 "http://www.w3.org/TR/2001/REC-SVG-20010904/DTD/svg10.dtd">
<svg version="1.0" xmlns="http://www.w3.org/2000/svg"
 width="147.000000pt" height="36.000000pt" viewBox="0 0 147.000000 36.000000"
 preserveAspectRatio="xMidYMid meet">

<g transform="translate(0.000000,36.000000) scale(0.100000,-0.100000)"
fill="#000000" stroke="none">
<path d="M228 256 c-13 -9 -13 -15 -4 -28 9 -13 15 -13 28 -4 13 9 13 15 4 28
-9 13 -15 13 -28 4z"/>
<path d="M130 218 c-7 -15 -25 -31 -39 -36 l-26 -9 27 -13 c15 -7 31 -25 36
-39 l9 -26 13 27 c7 15 25 31 39 36 l26 9 -27 13 c-15 7 -31 25 -36 39 l-9 26
-13 -27z m27 -59 c-8 -13 -14 -15 -28 -6 -13 8 -15 14 -6 28 8 13 14 15 28 6
13 -8 15 -14 6 -28z"/>
<path d="M380 175 c0 -30 5 -55 10 -55 6 0 10 9 10 20 0 13 7 20 19 20 11 0
23 5 26 10 4 6 -5 10 -19 10 -16 0 -26 6 -26 15 0 10 10 15 31 15 17 0 28 4
24 10 -3 6 -22 10 -41 10 l-34 0 0 -55z"/>
<path d="M570 176 l0 -54 60 -1 c59 -1 60 0 60 27 0 16 -5 33 -12 40 -15 15
-45 16 -53 2 -4 -6 3 -9 16 -7 19 2 24 -3 25 -25 2 -22 -1 -28 -18 -28 -14 0
-18 5 -14 15 3 8 1 15 -5 15 -5 0 -12 -7 -15 -15 -12 -31 -24 -13 -24 35 0 28
-4 50 -10 50 -5 0 -10 -24 -10 -54z"/>
<path d="M1000 210 c0 -17 -5 -19 -25 -14 -20 5 -27 1 -36 -20 -16 -35 2 -56
47 -54 l34 1 0 54 c0 29 -4 53 -10 53 -5 0 -10 -9 -10 -20z m-2 -53 c4 -20
-25 -34 -40 -19 -15 15 -1 44 19 40 10 -2 19 -11 21 -21z"/>
<path d="M1160 220 c0 -5 9 -10 20 -10 17 0 20 -7 20 -45 0 -25 5 -45 10 -45
6 0 10 20 10 45 0 33 4 45 15 45 8 0 15 5 15 10 0 6 -20 10 -45 10 -25 0 -45
-4 -45 -10z"/>
<path d="M1350 175 c0 -37 4 -55 13 -55 8 0 11 16 9 55 -5 71 -22 71 -22 0z"/>
<path d="M470 160 l0 -40 40 2 c31 1 40 5 35 15 -3 8 -5 27 -6 41 -1 29 -3 24
-13 -20 -9 -42 -36 -36 -36 7 0 19 -4 35 -10 35 -5 0 -10 -18 -10 -40z"/>
<path d="M710 158 c0 -43 17 -52 22 -11 2 17 10 29 21 31 13 3 17 -3 17 -27 0
-17 5 -31 10 -31 12 0 13 49 2 67 -4 6 -22 11 -40 11 -30 -1 -32 -3 -32 -40z"/>
<path d="M815 190 c-4 -6 3 -9 16 -7 18 1 23 -3 23 -23 0 -16 -6 -26 -18 -28
-14 -3 -17 0 -12 13 4 11 2 15 -6 13 -29 -10 -12 -33 25 -35 34 -1 37 1 37 26
0 15 -5 32 -12 39 -15 15 -45 16 -53 2z"/>
<path d="M1050 186 c-6 -8 -10 -25 -8 -38 2 -18 10 -24 36 -26 17 -2 32 1 32
6 0 5 -11 7 -25 4 -15 -2 -25 0 -25 7 0 6 14 11 30 11 31 0 39 17 18 38 -16
16 -43 15 -58 -2z m48 -14 c2 -7 -6 -12 -17 -12 -21 0 -27 11 -14 24 9 9 26 2
31 -12z"/>
<path d="M1265 189 c-4 -6 -1 -10 6 -8 28 3 36 -2 34 -23 -1 -13 -9 -24 -20
-27 -13 -2 -16 1 -11 14 4 11 2 15 -6 13 -29 -10 -12 -33 24 -34 40 -2 41 3
22 64 -4 15 -40 16 -49 1z"/>
<path d="M228 116 c-13 -9 -13 -15 -4 -28 9 -13 15 -13 28 -4 13 9 13 15 4 28
-9 13 -15 13 -28 4z"/>
</g>
</svg>
